<?xml version="1.0" encoding="utf-8"?>
<!-- Generator: Adobe Illustrator 24.0.1, SVG Export Plug-In . SVG Version: 6.00 Build 0)  -->
<svg version="1.1" id="Capa_1" xmlns="http://www.w3.org/2000/svg" xmlns:xlink="http://www.w3.org/1999/xlink" x="0px" y="0px"
	 viewBox="0 0 408.4 408.4" style="enable-background:new 0 0 408.4 408.4;" xml:space="preserve">
<style type="text/css">
	.st0{fill:#FFFFFF;}
</style>
<g>
	<g>
		<g>
			<path class="st0" d="M296.2,186.5v-77.3c0-28.8-23.4-52.2-52.2-52.2h-182C56,57,51,52,51,45.9c0-6.1,5-11.1,11.1-11.1h198.4
				c9.6,0,17.4-7.8,17.4-17.4c0-9.6-7.8-17.4-17.4-17.4H62.1C36.8,0,16.2,20.6,16.2,45.9v262.4c0,28.8,23.4,52.2,52.2,52.2h120.8
				c20.2,29,53.7,48,91.6,48c61.5,0,111.5-50,111.5-111.5C392.2,240.7,350.4,194.1,296.2,186.5z M91,292.5c0,7.7-6.2,13.9-13.9,13.9
				s-13.9-6.2-13.9-13.9v-181c0-7.7,6.2-13.9,13.9-13.9S91,103.8,91,111.4V292.5z M280.7,383.4c-47.7,0-86.5-38.8-86.5-86.5
				c0-47.7,38.8-86.5,86.5-86.5s86.5,38.8,86.5,86.5S328.4,383.4,280.7,383.4z"/>
			<path class="st0" d="M280.7,256c-22.6,0-40.9,18.3-40.9,40.9c0,22.6,18.3,40.9,40.9,40.9c22.6,0,40.9-18.3,40.9-40.9
				C321.6,274.3,303.3,256,280.7,256z M280.7,313.8c-9.3,0-16.9-7.6-16.9-16.9c0-9.3,7.6-16.9,16.9-16.9s16.9,7.6,16.9,16.9
				S290,313.8,280.7,313.8z"/>
		</g>
	</g>
</g>
</svg>
