<?xml version="1.0" encoding="utf-8"?>
<!-- Generator: Adobe Illustrator 24.0.1, SVG Export Plug-In . SVG Version: 6.00 Build 0)  -->
<svg version="1.1" id="Camada_1" xmlns="http://www.w3.org/2000/svg" xmlns:xlink="http://www.w3.org/1999/xlink" x="0px" y="0px"
	 viewBox="0 0 442 442" style="enable-background:new 0 0 442 442;" xml:space="preserve">
<style type="text/css">
	.st0{fill:#FFFFFF;}
</style>
<path class="st0" d="M39.9,133.2h8l59.7-80.4H39.9C17.9,52.8,0,70.7,0,92.8v0.5C0,115.3,17.9,133.2,39.9,133.2z"/>
<path class="st0" d="M280.7,133.2l-111-111.5c-2.1-2.1-4.9-3.1-7.8-2.9s-5.6,1.7-7.3,4L72.7,133.1h208V133.2z"/>
<path class="st0" d="M355.2,133.2V67.8c0-4-1.6-7.8-4.4-10.6c-2.8-2.8-6.6-4.4-10.6-4.4H228.8l80,80.4H355.2z"/>
<path class="st0" d="M299.4,303.4v-33.5c0-27.6,22.4-49.9,49.9-49.9h56.5V153h-98.3c-1.6,0.4-3.3,0.4-5,0H39.9
	c-14.7,0-29-5.4-39.9-15.3v245.4c0,22.1,17.9,39.9,39.9,39.9h366.4v-69.9h-57c-13.2,0-26-5.2-35.3-14.5
	C304.7,329.3,299.4,316.6,299.4,303.4z"/>
<path class="st0" d="M418.8,239.9c-2,0.7-4.2,0.7-6.2,0h-63.4c-16.5,0.1-29.9,13.4-29.9,29.9v33.5c0.1,16.5,13.4,29.9,29.9,29.9H442
	v-93.4H418.8z M369.2,303.4c0,5.5-4.5,10-10,10c-5.5,0-10-4.5-10-10v-33.5c0-5.5,4.5-10,10-10c5.5,0,10,4.5,10,10V303.4z"/>
</svg>
