<?xml version="1.0" encoding="utf-8"?>
<!-- Generator: Adobe Illustrator 24.0.1, SVG Export Plug-In . SVG Version: 6.00 Build 0)  -->
<svg version="1.1" id="Capa_1" xmlns="http://www.w3.org/2000/svg" xmlns:xlink="http://www.w3.org/1999/xlink" x="0px" y="0px"
	 viewBox="0 0 472.1 472.1" style="enable-background:new 0 0 472.1 472.1;" xml:space="preserve">
<style type="text/css">
	.st0{fill:#FFFFFF;}
</style>
<g>
	<path class="st0" d="M31.7,282.2V66.3c0-1.4,1.1-2.5,2.5-2.5h318.1c1.4,0,2.5,1.1,2.5,2.5v61.4h31.7V66.3
		c0-18.8-15.3-34.2-34.2-34.2H34.2C15.3,32.1,0,47.5,0,66.3v215.9c0,18.8,15.3,34.2,34.2,34.2h106.7v41.8H124
		c-8.7,0-15.8,7.1-15.8,15.8c0,8.7,7.1,15.8,15.8,15.8h104.2v-31.7v-57.7v-15.8h-194C32.8,284.7,31.7,283.6,31.7,282.2z"/>
	<path class="st0" d="M435.1,159.3H296.9c-20.4,0-37.1,16.6-37.1,37.1v206.5c0,20.4,16.6,37.1,37.1,37.1h138.2
		c20.4,0,37.1-16.6,37.1-37.1V196.4C472.1,176,455.5,159.3,435.1,159.3z M291.5,196.4c0-3,2.4-5.4,5.4-5.4h138.2
		c3,0,5.4,2.4,5.4,5.4v191.8h-149V196.4z M366,425.9c-5,0-9.2-2.9-11.3-7.1c-0.9-1.8-1.5-3.7-1.5-5.8c0-7.1,5.8-12.9,12.9-12.9
		c7.1,0,12.9,5.8,12.9,12.9c0,2.1-0.6,4-1.5,5.8C375.2,422.9,371,425.9,366,425.9z"/>
</g>
</svg>
